<?xml version="1.0" encoding="utf-8"?>
<!-- Generator: Adobe Illustrator 13.0.0, SVG Export Plug-In . SVG Version: 6.00 Build 14948)  -->
<!DOCTYPE svg PUBLIC "-//W3C//DTD SVG 1.1//EN" "http://www.w3.org/Graphics/SVG/1.1/DTD/svg11.dtd">
<svg version="1.1" id="Layer_1" xmlns="http://www.w3.org/2000/svg" xmlns:xlink="http://www.w3.org/1999/xlink" x="0px" y="0px"
	 width="300px" height="170px" viewBox="0 0 300 170" enable-background="new 0 0 300 170" xml:space="preserve">
<g>
	<rect x="11.5" y="8.167" fill="#FFFFFF" stroke="#000000" stroke-width="6" width="277.945" height="151.333"/>
	<g>
		<path d="M62.015,39.095H50.116v39.332h9.518v5.62h-9.518v44.951h11.898v5.618H40.598V33.476h21.417V39.095z"/>
		<path d="M85.811,109.973c0-4.139-0.272-7.689-0.817-10.653c-0.543-2.969-1.26-5.552-2.151-7.757
			c-0.89-2.204-1.943-4.102-3.162-5.688c-1.217-1.584-2.397-3.122-3.538-4.608c-1.141-1.485-2.269-2.954-3.384-4.406
			c-1.115-1.453-2.118-3.096-3.011-4.931c-0.893-1.833-1.612-3.951-2.157-6.35c-0.545-2.4-0.817-5.277-0.817-8.634V42.841
			c0-0.937,0.185-1.999,0.558-3.19c0.372-1.189,1.078-2.301,2.12-3.336c1.041-1.033,2.491-1.911,4.35-2.634
			c1.859-0.722,4.276-1.083,7.251-1.083c2.975,0,5.391,0.361,7.25,1.083c1.858,0.723,3.309,1.601,4.35,2.634
			c1.041,1.035,1.748,2.147,2.119,3.336c0.372,1.191,0.558,2.253,0.558,3.19v26.222h-9.519V42.841c0-0.937-0.136-1.706-0.408-2.312
			c-0.273-0.604-0.632-1.073-1.079-1.405c-0.446-0.331-0.955-0.564-1.523-0.703c-0.571-0.135-1.153-0.204-1.748-0.204
			c-0.595,0-1.178,0.069-1.749,0.204c-0.57,0.137-1.078,0.369-1.523,0.702c-0.446,0.331-0.806,0.797-1.079,1.401
			c-0.273,0.604-0.409,1.373-0.409,2.307v11.39c0,4.4,0.48,8.08,1.444,11.039c0.964,2.96,2.168,5.54,3.615,7.739
			c1.445,2.2,2.906,4.237,4.384,6.11c1.475,1.874,3.005,3.813,4.585,5.818c1.58,2.006,2.811,4.385,3.69,7.145
			c0.878,2.755,1.318,6.184,1.318,10.288v22.871c0,0.467-0.074,1.319-0.223,2.55c-0.149,1.231-0.669,2.492-1.562,3.781
			c-0.893,1.293-2.306,2.435-4.24,3.432c-1.933,0.998-4.684,1.496-8.253,1.496c-3.57,0-6.322-0.498-8.256-1.494
			c-1.932-0.995-3.345-2.135-4.238-3.425c-0.893-1.286-1.413-2.544-1.562-3.772c-0.148-1.229-0.223-2.08-0.223-2.546V91.537h9.519
			v33.715c0,0.466,0.024,1.023,0.074,1.667c0.05,0.643,0.223,1.259,0.521,1.844c0.296,0.585,0.768,1.083,1.412,1.492
			c0.645,0.41,1.563,0.614,2.752,0.614c1.189,0,2.106-0.204,2.751-0.614c0.644-0.409,1.115-0.907,1.412-1.492
			c0.298-0.585,0.471-1.201,0.521-1.844c0.05-0.644,0.074-1.201,0.074-1.667V109.973z"/>
		<path d="M128.646,33.476v5.619h-9.519v95.52h-9.519v-95.52h-9.518v-5.619H128.646z"/>
		<path d="M161.589,134.615h-9.519l-1.189-24.348h-7.065l-1.265,24.348h-9.518l7.139-101.139h14.278L161.589,134.615z
			 M149.69,82.173l-2.379-44.951l-2.379,44.951l-1.116,22.475h7.065L149.69,82.173z"/>
		<path d="M197.283,134.615h-9.518l-11.898-75.064v75.064h-7.14V33.476h9.519l11.899,75.065V33.476h7.138V134.615z"/>
		<path d="M232.979,33.476v5.619h-9.518v95.52h-9.521v-95.52h-9.517v-5.619H232.979z"/>
		<path d="M261.536,39.095h-11.899v39.332h9.518v5.62h-9.518v44.951h11.899v5.618h-21.419V33.476h21.419V39.095z"/>
	</g>
</g>
</svg>
